<svg width="13" height="11" viewBox="0 0 13 11" fill="none" xmlns="http://www.w3.org/2000/svg">
<path d="M12.9643 1.01792L10.9924 10.3234C10.8377 10.9867 10.48 11.1623 9.91938 10.8502L6.93245 8.62621L5.48248 10.0308C5.28915 10.2259 5.08616 10.3234 4.8735 10.3234L5.10549 7.25087L10.6444 2.21769C10.7797 2.08113 10.7797 2.0031 10.6444 1.98359C10.5284 1.94457 10.4027 1.97384 10.2674 2.07138L3.42353 6.43151L0.4656 5.49511C0.136941 5.39757 -0.0177218 5.25125 0.00161107 5.05617C0.020944 4.86108 0.223939 4.69526 0.610597 4.5587L12.1233 0.0522547C12.4133 -0.0452874 12.6453 -0.00627057 12.8193 0.169305C12.9933 0.325373 13.0416 0.608245 12.9643 1.01792Z" fill="#F1F1F1"/>
</svg>
