<svg width="22" height="15" viewBox="0 0 22 15" fill="none" xmlns="http://www.w3.org/2000/svg">
<g clip-path="url(#clip0_401_153)">
<path d="M11.8275 7.47422C11.8275 9.44396 10.1894 11.0407 8.16895 11.0407C6.14846 11.0407 4.51031 9.44396 4.51031 7.47422C4.51031 5.50449 6.14833 3.90759 8.16895 3.90759C10.1896 3.90759 11.8275 5.50449 11.8275 7.47422Z" fill="white"/>
<path d="M15.8408 7.47405C15.8408 9.32825 15.0218 10.8313 14.0115 10.8313C13.0012 10.8313 12.1822 9.32813 12.1822 7.47405C12.1822 5.61997 13.0012 4.11682 14.0115 4.11682C15.0218 4.1167 15.8408 5.61985 15.8408 7.47405Z" fill="white"/>
<path d="M17.4826 7.47441C17.4826 9.13569 17.1946 10.4824 16.8392 10.4824C16.4839 10.4824 16.1959 9.13569 16.1959 7.47441C16.1959 5.81312 16.4839 4.46643 16.8392 4.46643C17.1946 4.46643 17.4826 5.81312 17.4826 7.47441Z" fill="white"/>
</g>
<defs>
<clipPath id="clip0_401_153">
<rect width="20.3077" height="13.8462" fill="white" transform="translate(0.846191 0.538574)"/>
</clipPath>
</defs>
</svg>
