<svg width="12" height="11" viewBox="0 0 12 11" fill="none" xmlns="http://www.w3.org/2000/svg">
<path d="M5.8399 3.16275L5.86391 3.60193L5.46373 3.54816C4.00706 3.34201 2.73447 2.6429 1.65398 1.46876L1.12573 0.886173L0.989669 1.31639C0.701536 2.27542 0.885621 3.28823 1.4859 3.96941C1.80605 4.34586 1.73401 4.39963 1.18176 4.17556C0.989669 4.10386 0.821592 4.05008 0.805584 4.07697C0.749559 4.13971 0.941647 4.95533 1.09372 5.278C1.30181 5.72614 1.72601 6.16533 2.19022 6.42525L2.5824 6.6314L2.11819 6.64036C1.66998 6.64036 1.65398 6.64932 1.702 6.83754C1.86207 7.42013 2.49436 8.03857 3.19869 8.30746L3.69492 8.49568L3.26272 8.78249C2.62242 9.19479 1.87007 9.42782 1.11773 9.44575C0.757562 9.45471 0.461426 9.49056 0.461426 9.51745C0.461426 9.60708 1.43788 10.109 2.00614 10.3062C3.71092 10.8888 5.73586 10.6378 7.25656 9.64293C8.33705 8.93486 9.41755 7.52769 9.92178 6.16533C10.1939 5.43933 10.466 4.11282 10.466 3.47645C10.466 3.06416 10.49 3.01038 10.9383 2.51742C11.2024 2.23061 11.4505 1.91691 11.4985 1.82728C11.5785 1.65698 11.5705 1.65698 11.1624 1.80935C10.482 2.07824 10.386 2.04239 10.7222 1.63906C10.9703 1.35224 11.2664 0.832396 11.2664 0.680027C11.2664 0.653138 11.1463 0.697952 11.0103 0.778618C10.8662 0.868248 10.5461 1.00269 10.306 1.08336L9.87376 1.23573L9.48158 0.939951C9.26548 0.778618 8.96134 0.59936 8.80127 0.545583C8.39308 0.420102 7.76879 0.438028 7.40062 0.581435C6.40016 0.984765 5.76787 2.02446 5.8399 3.16275Z" fill="white"/>
</svg>
