<svg width="18" height="18" viewBox="0 0 18 18" fill="none" xmlns="http://www.w3.org/2000/svg">
<path d="M9.00014 0.692383C4.4125 0.692383 0.692383 4.50594 0.692383 9.2104C0.692383 12.9739 3.07281 16.1668 6.37374 17.2931C6.78893 17.372 6.94136 17.1083 6.94136 16.8834C6.94136 16.6802 6.93366 16.0092 6.93008 15.2975C4.61886 15.8128 4.13116 14.2925 4.13116 14.2925C3.75325 13.3079 3.20873 13.0461 3.20873 13.0461C2.45497 12.5174 3.26555 12.5283 3.26555 12.5283C4.09979 12.5884 4.53906 13.4061 4.53906 13.4061C5.28003 14.7083 6.48256 14.3318 6.95663 14.1142C7.0312 13.5636 7.2465 13.1879 7.48409 12.9752C5.63882 12.7598 3.69904 12.0294 3.69904 8.76552C3.69904 7.83554 4.02358 7.07568 4.55502 6.47916C4.46876 6.26461 4.1844 5.39825 4.6355 4.22496C4.6355 4.22496 5.33313 3.99603 6.92073 5.09809C7.58342 4.90936 8.29412 4.81471 9.00014 4.81147C9.70617 4.81471 10.4174 4.90936 11.0813 5.09809C12.667 3.99603 13.3637 4.22496 13.3637 4.22496C13.8159 5.39825 13.5314 6.26461 13.4451 6.47916C13.9778 7.07568 14.3001 7.83554 14.3001 8.76552C14.3001 12.0371 12.3567 12.7575 10.5067 12.9684C10.8047 13.2327 11.0702 13.7511 11.0702 14.5458C11.0702 15.6855 11.0606 16.6028 11.0606 16.8834C11.0606 17.11 11.2101 17.3756 11.6312 17.292C14.9304 16.1644 17.3078 12.9726 17.3078 9.2104C17.3078 4.50594 13.5882 0.692383 9.00014 0.692383Z" fill="white"/>
<path d="M3.86338 12.8638C3.84511 12.9057 3.7803 12.9183 3.72125 12.8895C3.66111 12.862 3.62733 12.8049 3.64683 12.7629C3.66468 12.7197 3.72963 12.7077 3.78964 12.7366C3.84992 12.7641 3.88425 12.8218 3.86338 12.8638Z" fill="#161514"/>
<path d="M4.19922 13.2448C4.15967 13.2821 4.08236 13.2648 4.02991 13.2059C3.97567 13.1471 3.9655 13.0685 4.0056 13.0306C4.04638 12.9933 4.12136 13.0108 4.17574 13.0696C4.22998 13.1291 4.24055 13.2071 4.19922 13.2448Z" fill="#161514"/>
<path d="M4.52637 13.7308C4.47557 13.7666 4.39249 13.733 4.34113 13.658C4.29032 13.583 4.29032 13.493 4.34223 13.457C4.39372 13.421 4.47557 13.4534 4.52761 13.5278C4.57828 13.6041 4.57828 13.694 4.52637 13.7308Z" fill="#161514"/>
<path d="M4.9742 14.1999C4.92875 14.2509 4.83194 14.2372 4.76109 14.1676C4.68858 14.0996 4.6684 14.0031 4.71399 13.9521C4.75999 13.901 4.85735 13.9154 4.92875 13.9844C5.00071 14.0522 5.02268 14.1495 4.9742 14.1999Z" fill="#161514"/>
<path d="M5.59205 14.4724C5.572 14.5385 5.47876 14.5685 5.38483 14.5404C5.29105 14.5115 5.22966 14.4341 5.24861 14.3674C5.26811 14.3009 5.36176 14.2696 5.45638 14.2997C5.55003 14.3284 5.61154 14.4052 5.59205 14.4724Z" fill="#161514"/>
<path d="M6.27077 14.5229C6.2731 14.5924 6.19346 14.6501 6.09486 14.6514C5.99572 14.6536 5.91553 14.5973 5.91443 14.5289C5.91443 14.4586 5.99229 14.4015 6.09143 14.3998C6.19002 14.3979 6.27077 14.4537 6.27077 14.5229Z" fill="#161514"/>
<path d="M6.90214 14.4137C6.91395 14.4816 6.84542 14.5513 6.74752 14.5698C6.65126 14.5877 6.56214 14.5458 6.54992 14.4785C6.53797 14.4089 6.60773 14.3393 6.70385 14.3212C6.80189 14.3039 6.88964 14.3447 6.90214 14.4137Z" fill="#161514"/>
</svg>
