<svg width="15" height="13" viewBox="0 0 15 13" fill="none" xmlns="http://www.w3.org/2000/svg">
<path d="M14.8436 1.41439L12.5858 11.973C12.4087 12.7256 11.9992 12.9248 11.3573 12.5706L7.93739 10.0472L6.27724 11.641C6.05588 11.8623 5.82346 11.973 5.57997 11.973L5.84559 8.48666L12.1874 2.77572C12.3423 2.62077 12.3423 2.53223 12.1874 2.5101C12.0546 2.46583 11.9107 2.49903 11.7558 2.60971L3.91981 7.55697L0.533095 6.49447C0.156793 6.38379 -0.0202908 6.21778 0.00184462 5.99643C0.02398 5.77507 0.256402 5.58692 0.69911 5.43197L13.8808 0.318691C14.2128 0.208014 14.4784 0.252284 14.6776 0.451503C14.8768 0.628587 14.9322 0.94955 14.8436 1.41439Z" fill="#F1F1F1"/>
</svg>
