<svg width="14" height="13" viewBox="0 0 14 13" fill="none" xmlns="http://www.w3.org/2000/svg">
<path fill-rule="evenodd" clip-rule="evenodd" d="M3.65471 1.97611C3.65471 2.77521 3.0532 3.41463 2.08738 3.41463H2.06968C1.13975 3.41463 0.538574 2.77521 0.538574 1.97611C0.538574 1.1601 1.15806 0.538574 2.10563 0.538574C3.0532 0.538574 3.63674 1.1601 3.65471 1.97611ZM3.47254 4.55073V12.8732H0.702627V4.55073H3.47254ZM13.4609 12.8726L13.461 8.10077C13.461 5.54448 12.0946 4.35474 10.2718 4.35474C8.80119 4.35474 8.14276 5.16252 7.77513 5.72919V4.55038H5.00488C5.04139 5.33132 5.00488 12.8728 5.00488 12.8728H7.77513V8.22489C7.77513 7.97616 7.79311 7.72804 7.86635 7.54995C8.06654 7.05304 8.52234 6.53857 9.28759 6.53857C10.2903 6.53857 10.6911 7.30172 10.6911 8.42009V12.8726H13.4609Z" fill="white"/>
</svg>
