<svg width="17" height="14" viewBox="0 0 17 14" fill="none" xmlns="http://www.w3.org/2000/svg">
<path d="M16.9533 1.29554L14.3746 13.1389C14.1724 13.9831 13.7047 14.2066 12.9715 13.8093L9.06551 10.9788L7.1694 12.7665C6.91659 13.0148 6.65113 13.1389 6.37303 13.1389L6.67641 9.22838L13.9196 2.82252C14.0965 2.64871 14.0965 2.5494 13.9196 2.52457C13.7679 2.47491 13.6035 2.51215 13.4266 2.6363L4.47693 8.18556L0.608862 6.99377C0.179077 6.86963 -0.0231747 6.68341 0.00210679 6.43512C0.0273882 6.18684 0.292844 5.97579 0.798473 5.80199L15.8536 0.066506C16.2328 -0.0576386 16.5362 -0.00798073 16.7637 0.21548C16.9912 0.414111 17.0545 0.77413 16.9533 1.29554Z" fill="#414141"/>
</svg>
