<svg width="136" height="20" viewBox="0 0 136 20" fill="none" xmlns="http://www.w3.org/2000/svg">
<path d="M28.4863 8.97269H40.3256V1.35241H43.6972V20H40.3256V12.3797H28.4863V20H25.1147V1.35241H28.4863V8.97269Z" fill="white"/>
<path d="M61.6702 15.3446C61.6702 15.8127 61.5881 16.3199 61.4238 16.8661C61.2595 17.4036 60.9916 17.9064 60.6198 18.3745C60.2567 18.834 59.7769 19.2198 59.1804 19.5319C58.5926 19.844 57.875 20 57.0278 20H50.946C50.4792 20 49.9735 19.9176 49.4288 19.7529C48.8929 19.5882 48.3914 19.3238 47.9246 18.9597C47.4664 18.5869 47.0817 18.1058 46.7705 17.5163C46.4593 16.9181 46.3037 16.1942 46.3037 15.3446C46.3037 14.8765 46.3858 14.3693 46.5501 13.8231C46.7143 13.277 46.978 12.7742 47.3411 12.3147C47.7128 11.8466 48.1926 11.4564 48.7805 11.1443C49.377 10.8322 50.0988 10.6762 50.946 10.6762H57.0278V13.9012H50.946C50.4879 13.9012 50.1334 14.0442 49.8827 14.3303C49.632 14.6077 49.5067 14.9545 49.5067 15.3706C49.5067 15.8127 49.6493 16.1595 49.9346 16.4109C50.2285 16.6537 50.5743 16.775 50.972 16.775H57.0278C57.486 16.775 57.8404 16.6363 58.0911 16.3589C58.3419 16.0815 58.4672 15.7347 58.4672 15.3186V10.5982C58.4672 10.156 58.3289 9.80494 58.0522 9.54486C57.7843 9.28479 57.4428 9.15475 57.0278 9.15475H49.6234V5.94278H57.0278C57.4946 5.94278 57.9961 6.02514 58.532 6.18986C59.0767 6.35457 59.5781 6.62332 60.0363 6.9961C60.5031 7.36021 60.8921 7.84135 61.2034 8.43953C61.5146 9.02904 61.6702 9.74859 61.6702 10.5982V15.3446Z" fill="white"/>
<path d="M78.1 15.2536C78.1 15.8344 78.0266 16.3589 77.8796 16.827C77.7326 17.2865 77.5381 17.694 77.296 18.0494C77.054 18.3962 76.773 18.6953 76.4532 18.9467C76.1333 19.1894 75.7961 19.3888 75.4417 19.5449C75.0959 19.7009 74.7414 19.8179 74.3784 19.896C74.0239 19.9653 73.6868 20 73.3669 20H64.2378V16.619H73.341C73.7991 16.619 74.1449 16.502 74.3784 16.2679C74.6118 16.0338 74.7285 15.6957 74.7285 15.2536C74.6852 14.352 74.2314 13.9012 73.3669 13.9012H68.141C67.3975 13.9012 66.7664 13.7711 66.2477 13.5111C65.729 13.251 65.3054 12.9259 64.9769 12.5358C64.657 12.1456 64.4236 11.7252 64.2767 11.2744C64.1383 10.8236 64.0692 10.4031 64.0692 10.013C64.0692 9.25878 64.2032 8.62592 64.4712 8.11443C64.7392 7.59428 65.0763 7.17382 65.4826 6.85306C65.889 6.53229 66.3298 6.30256 66.8053 6.16385C67.2808 6.01647 67.726 5.94278 68.141 5.94278H76.4272V9.3238H68.1669C67.994 9.3238 67.8557 9.34547 67.7519 9.38882C67.6569 9.42349 67.5834 9.47551 67.5315 9.54486C67.4883 9.60555 67.4623 9.6749 67.4537 9.75293C67.4451 9.82228 67.4407 9.89163 67.4407 9.96099C67.4494 10.0997 67.4753 10.2081 67.5185 10.2861C67.5618 10.3641 67.6136 10.4205 67.6741 10.4551C67.7433 10.4898 67.8168 10.5115 67.8946 10.5202C67.981 10.5202 68.0632 10.5202 68.141 10.5202H73.3669C74.2314 10.5202 74.9662 10.6762 75.5714 10.9883C76.1765 11.3004 76.665 11.6948 77.0367 12.1717C77.4084 12.6398 77.6764 13.1513 77.8407 13.7061C78.0136 14.2609 78.1 14.7768 78.1 15.2536Z" fill="white"/>
<path d="M96.06 20H92.6885V10.6762C92.6885 10.2341 92.5761 9.9003 92.3513 9.6749C92.1266 9.44083 91.7894 9.3238 91.3399 9.3238H85.2581V5.94278H91.3399C91.6597 5.94278 91.9969 5.98179 92.3513 6.05982C92.7058 6.12917 93.0559 6.24187 93.4017 6.39792C93.7561 6.55397 94.0933 6.75769 94.4132 7.0091C94.733 7.25184 95.014 7.55093 95.2561 7.90637C95.4981 8.25314 95.6926 8.65626 95.8396 9.11574C95.9866 9.57521 96.06 10.0954 96.06 10.6762V20ZM83.8965 20H80.525V0H83.8965V20Z" fill="white"/>
<path d="M114.811 12.3797H104.165V8.97269H114.811V12.3797ZM116.328 20H104.165C103.698 20 103.188 19.9176 102.635 19.7529C102.081 19.5882 101.567 19.3195 101.091 18.9467C100.625 18.5652 100.231 18.0754 99.9114 17.4772C99.6002 16.8704 99.4446 16.1292 99.4446 15.2536V3.05592C99.4446 2.82185 99.4878 2.60078 99.5742 2.39272C99.6607 2.18466 99.7774 2.0026 99.9244 1.84655C100.08 1.69051 100.262 1.56914 100.469 1.48244C100.676 1.39575 100.901 1.35241 101.143 1.35241H116.328V4.73342H102.816V15.2536C102.816 15.6957 102.933 16.0338 103.166 16.2679C103.4 16.502 103.741 16.619 104.191 16.619H116.328V20Z" fill="white"/>
<path d="M135.235 5.94278L129.179 12.5748L136 20H131.358L126.871 15.0975L122.384 20H117.729L124.537 12.5488L118.507 5.94278H123.123L126.845 10.013L130.593 5.94278H135.235Z" fill="white"/>
<path d="M2.34543 5.63918H5.34703L6.38014 1.09985H9.77264L8.7535 5.63918H12.2437L13.2629 1.09985H16.6693L15.6362 5.63918H18.8472L18.1213 8.84423H14.9242L14.1843 12.2006H17.2697L16.5577 15.4056H13.4723L12.4392 20H9.03272L10.0658 15.4056H6.57559L5.54249 20H2.14998L3.16913 15.4056H0L0.767851 12.2006H3.88114L4.63503 8.84423H1.57758L2.34543 5.63918ZM7.2876 12.2006H10.7778L11.5178 8.84423H8.02753L7.2876 12.2006Z" fill="#C2F051"/>
</svg>
